<svg xmlns="http://www.w3.org/2000/svg" viewBox="0 0 24 24" fill="none" class="icon">
  <defs>
    <linearGradient id="brainGrad" x1="0%" y1="0%" x2="100%" y2="100%">
      <stop offset="0%" class="gradient-start" style="stop-color:var(--icon-gradient-start, #2196f3);stop-opacity:1" />
      <stop offset="100%" class="gradient-end" style="stop-color:var(--icon-gradient-end, #00b8cc);stop-opacity:1" />
    </linearGradient>
  </defs>
  <g class="icon-gradient">
    <path d="M12 5a3 3 0 10-5.997.125 4 4 0 00-2.526 5.77 4 4 0 00.556 6.588A4 4 0 107 21a4 4 0 005-3.581" fill="url(#brainGrad)" opacity="0.15"/>
    <path d="M12 5a3 3 0 10-5.997.125 4 4 0 00-2.526 5.77 4 4 0 00.556 6.588A4 4 0 107 21a4 4 0 005-3.581" stroke="url(#brainGrad)" stroke-width="2" stroke-linecap="round" stroke-linejoin="round" fill="none"/>
    <path d="M12 5a3 3 0 115.997.125 4 4 0 012.526 5.77 4 4 0 01-.556 6.588A4 4 0 1017 21a4 4 0 01-5-3.581" fill="url(#brainGrad)" opacity="0.15"/>
    <path d="M12 5a3 3 0 115.997.125 4 4 0 012.526 5.77 4 4 0 01-.556 6.588A4 4 0 1017 21a4 4 0 01-5-3.581" stroke="url(#brainGrad)" stroke-width="2" stroke-linecap="round" stroke-linejoin="round" fill="none"/>
    <path d="M12 5v16" stroke="url(#brainGrad)" stroke-width="2" stroke-linecap="round"/>
  </g>
  <g class="icon-mono" style="display:none;">
    <path d="M12 5a3 3 0 10-5.997.125 4 4 0 00-2.526 5.77 4 4 0 00.556 6.588A4 4 0 107 21a4 4 0 005-3.581" fill="currentColor" opacity="0.15"/>
    <path d="M12 5a3 3 0 10-5.997.125 4 4 0 00-2.526 5.77 4 4 0 00.556 6.588A4 4 0 107 21a4 4 0 005-3.581" stroke="currentColor" stroke-width="2" stroke-linecap="round" stroke-linejoin="round" fill="none"/>
    <path d="M12 5a3 3 0 115.997.125 4 4 0 012.526 5.77 4 4 0 01-.556 6.588A4 4 0 1017 21a4 4 0 01-5-3.581" fill="currentColor" opacity="0.15"/>
    <path d="M12 5a3 3 0 115.997.125 4 4 0 012.526 5.77 4 4 0 01-.556 6.588A4 4 0 1017 21a4 4 0 01-5-3.581" stroke="currentColor" stroke-width="2" stroke-linecap="round" stroke-linejoin="round" fill="none"/>
    <path d="M12 5v16" stroke="currentColor" stroke-width="2" stroke-linecap="round"/>
  </g>
</svg>
