<svg xmlns="http://www.w3.org/2000/svg" viewBox="0 0 24 24" fill="none" class="icon icon-warning">
  <defs>
    <linearGradient id="cookieGrad" x1="0%" y1="0%" x2="100%" y2="100%">
      <stop offset="0%" class="gradient-start" style="stop-color:var(--icon-gradient-start, #f59e0b);stop-opacity:1" />
      <stop offset="100%" class="gradient-end" style="stop-color:var(--icon-gradient-end, #f43f5e);stop-opacity:1" />
    </linearGradient>
  </defs>
  <g class="icon-gradient">
    <circle cx="12" cy="12" r="9" fill="url(#cookieGrad)" opacity="0.2"/>
    <path d="M12 3a9 9 0 00-9 9c0 3.5 2 6.5 5 8 .5-1 1.5-2 3-2s2.5 1 3 2c3-1.5 5-4.5 5-8a9 9 0 00-7-8.77V5a2 2 0 011 1.73 2 2 0 11-3.5-1.32A9 9 0 0012 3z" fill="url(#cookieGrad)" stroke="url(#cookieGrad)" stroke-width="0.5"/>
    <circle cx="9" cy="10" r="1" fill="url(#cookieGrad)"/>
    <circle cx="15" cy="11" r="1" fill="url(#cookieGrad)"/>
    <circle cx="11" cy="14" r="1" fill="url(#cookieGrad)"/>
    <circle cx="14" cy="16" r="1" fill="url(#cookieGrad)"/>
  </g>
  
  <!-- Monochrome fallback -->
  <g class="icon-mono" style="display:none;">
    <circle cx="12" cy="12" r="9" fill="currentColor" opacity="0.15"/>
    <path d="M12 3a9 9 0 00-9 9c0 3.5 2 6.5 5 8 .5-1 1.5-2 3-2s2.5 1 3 2c3-1.5 5-4.5 5-8a9 9 0 00-7-8.77V5a2 2 0 011 1.73 2 2 0 11-3.5-1.32A9 9 0 0012 3z" fill="currentColor" stroke="currentColor" stroke-width="0.5"/>
    <circle cx="9" cy="10" r="1" fill="currentColor"/>
    <circle cx="15" cy="11" r="1" fill="currentColor"/>
    <circle cx="11" cy="14" r="1" fill="currentColor"/>
    <circle cx="14" cy="16" r="1" fill="currentColor"/>
  </g>
</svg>
