<svg xmlns="http://www.w3.org/2000/svg" viewBox="0 0 24 24" fill="none" class="icon">
  <defs>
    <linearGradient id="cubeGrad" x1="0%" y1="0%" x2="100%" y2="100%">
      <stop offset="0%" class="gradient-start" style="stop-color:var(--icon-gradient-start, #2196f3);stop-opacity:1" />
      <stop offset="100%" class="gradient-end" style="stop-color:var(--icon-gradient-end, #00b8cc);stop-opacity:1" />
    </linearGradient>
  </defs>
  <g class="icon-gradient">
    <path d="M21 16V8a2 2 0 00-1-1.73l-7-4a2 2 0 00-2 0l-7 4A2 2 0 003 8v8a2 2 0 001 1.73l7 4a2 2 0 002 0l7-4A2 2 0 0021 16z" fill="url(#cubeGrad)" opacity="0.15"/>
    <path d="M21 16V8a2 2 0 00-1-1.73l-7-4a2 2 0 00-2 0l-7 4A2 2 0 003 8v8a2 2 0 001 1.73l7 4a2 2 0 002 0l7-4A2 2 0 0021 16z" stroke="url(#cubeGrad)" stroke-width="2" stroke-linecap="round" stroke-linejoin="round" fill="none"/>
    <path d="M3.27 6.96L12 12.01l8.73-5.05" stroke="url(#cubeGrad)" stroke-width="2" stroke-linecap="round" stroke-linejoin="round"/>
    <path d="M12 22.08V12" stroke="url(#cubeGrad)" stroke-width="2" stroke-linecap="round" stroke-linejoin="round"/>
  </g>
  <g class="icon-mono" style="display:none;">
    <path d="M21 16V8a2 2 0 00-1-1.73l-7-4a2 2 0 00-2 0l-7 4A2 2 0 003 8v8a2 2 0 001 1.73l7 4a2 2 0 002 0l7-4A2 2 0 0021 16z" fill="currentColor" opacity="0.15"/>
    <path d="M21 16V8a2 2 0 00-1-1.73l-7-4a2 2 0 00-2 0l-7 4A2 2 0 003 8v8a2 2 0 001 1.73l7 4a2 2 0 002 0l7-4A2 2 0 0021 16z" stroke="currentColor" stroke-width="2" stroke-linecap="round" stroke-linejoin="round" fill="none"/>
    <path d="M3.27 6.96L12 12.01l8.73-5.05" stroke="currentColor" stroke-width="2" stroke-linecap="round" stroke-linejoin="round"/>
    <path d="M12 22.08V12" stroke="currentColor" stroke-width="2" stroke-linecap="round" stroke-linejoin="round"/>
  </g>
</svg>
