<svg xmlns="http://www.w3.org/2000/svg" viewBox="0 0 24 24" fill="none" class="icon">
  <defs>
    <linearGradient id="ethGrad" x1="0%" y1="0%" x2="100%" y2="100%">
      <stop offset="0%" class="gradient-start" style="stop-color:var(--icon-gradient-start, #2196f3);stop-opacity:1" />
      <stop offset="100%" class="gradient-end" style="stop-color:var(--icon-gradient-end, #00b8cc);stop-opacity:1" />
    </linearGradient>
  </defs>
  <g class="icon-gradient">
    <!-- Ethereum diamond shape -->
    <path d="M12 2L4 12l8 4 8-4-8-10z" fill="url(#ethGrad)" opacity="0.2"/>
    <path d="M12 2L4 12l8 4 8-4-8-10z" stroke="url(#ethGrad)" stroke-width="1.5" stroke-linejoin="round" fill="none"/>
    <path d="M4 12l8 10 8-10-8 4-8-4z" fill="url(#ethGrad)" opacity="0.3"/>
    <path d="M4 12l8 10 8-10" stroke="url(#ethGrad)" stroke-width="1.5" stroke-linejoin="round" fill="none"/>
    <path d="M12 16V6" stroke="url(#ethGrad)" stroke-width="1.5" stroke-linecap="round"/>
  </g>
  <g class="icon-mono" style="display:none;">
    <path d="M12 2L4 12l8 4 8-4-8-10z" fill="currentColor" opacity="0.2"/>
    <path d="M12 2L4 12l8 4 8-4-8-10z" stroke="currentColor" stroke-width="1.5" stroke-linejoin="round" fill="none"/>
    <path d="M4 12l8 10 8-10-8 4-8-4z" fill="currentColor" opacity="0.3"/>
    <path d="M4 12l8 10 8-10" stroke="currentColor" stroke-width="1.5" stroke-linejoin="round" fill="none"/>
    <path d="M12 16V6" stroke="currentColor" stroke-width="1.5" stroke-linecap="round"/>
  </g>
</svg>
