<svg xmlns="http://www.w3.org/2000/svg" viewBox="0 0 24 24" fill="none" class="icon">
  <defs>
    <linearGradient id="gamepadGrad" x1="0%" y1="0%" x2="100%" y2="100%">
      <stop offset="0%" class="gradient-start" style="stop-color:var(--icon-gradient-start, #2196f3);stop-opacity:1" />
      <stop offset="100%" class="gradient-end" style="stop-color:var(--icon-gradient-end, #00b8cc);stop-opacity:1" />
    </linearGradient>
  </defs>
  <g class="icon-gradient">
    <path d="M6 12h4M8 10v4" stroke="url(#gamepadGrad)" stroke-width="2" stroke-linecap="round"/>
    <line x1="15" y1="11" x2="15" y2="11" stroke="url(#gamepadGrad)" stroke-width="3" stroke-linecap="round"/>
    <line x1="18" y1="13" x2="18" y2="13" stroke="url(#gamepadGrad)" stroke-width="3" stroke-linecap="round"/>
    <path d="M17.32 5H6.68a4 4 0 00-3.978 3.59c-.006.052-.01.101-.017.152C2.604 9.416 2 14.456 2 16a3 3 0 003 3c1.652 0 2.38-.94 2.68-1.56l.78-1.56a1 1 0 01.9-.88h5.28a1 1 0 01.9.88l.78 1.56c.3.62 1.028 1.56 2.68 1.56a3 3 0 003-3c0-1.545-.604-6.584-.685-7.258-.007-.05-.011-.1-.017-.151A4 4 0 0017.32 5z" fill="url(#gamepadGrad)" opacity="0.2"/>
    <path d="M17.32 5H6.68a4 4 0 00-3.978 3.59c-.006.052-.01.101-.017.152C2.604 9.416 2 14.456 2 16a3 3 0 003 3c1.652 0 2.38-.94 2.68-1.56l.78-1.56a1 1 0 01.9-.88h5.28a1 1 0 01.9.88l.78 1.56c.3.62 1.028 1.56 2.68 1.56a3 3 0 003-3c0-1.545-.604-6.584-.685-7.258-.007-.05-.011-.1-.017-.151A4 4 0 0017.32 5z" stroke="url(#gamepadGrad)" stroke-width="2" stroke-linecap="round" stroke-linejoin="round" fill="none"/>
  </g>
  <g class="icon-mono" style="display:none;">
    <path d="M6 12h4M8 10v4" stroke="currentColor" stroke-width="2" stroke-linecap="round"/>
    <line x1="15" y1="11" x2="15" y2="11" stroke="currentColor" stroke-width="3" stroke-linecap="round"/>
    <line x1="18" y1="13" x2="18" y2="13" stroke="currentColor" stroke-width="3" stroke-linecap="round"/>
    <path d="M17.32 5H6.68a4 4 0 00-3.978 3.59c-.006.052-.01.101-.017.152C2.604 9.416 2 14.456 2 16a3 3 0 003 3c1.652 0 2.38-.94 2.68-1.56l.78-1.56a1 1 0 01.9-.88h5.28a1 1 0 01.9.88l.78 1.56c.3.62 1.028 1.56 2.68 1.56a3 3 0 003-3c0-1.545-.604-6.584-.685-7.258-.007-.05-.011-.1-.017-.151A4 4 0 0017.32 5z" fill="currentColor" opacity="0.2"/>
    <path d="M17.32 5H6.68a4 4 0 00-3.978 3.59c-.006.052-.01.101-.017.152C2.604 9.416 2 14.456 2 16a3 3 0 003 3c1.652 0 2.38-.94 2.68-1.56l.78-1.56a1 1 0 01.9-.88h5.28a1 1 0 01.9.88l.78 1.56c.3.62 1.028 1.56 2.68 1.56a3 3 0 003-3c0-1.545-.604-6.584-.685-7.258-.007-.05-.011-.1-.017-.151A4 4 0 0017.32 5z" stroke="currentColor" stroke-width="2" stroke-linecap="round" stroke-linejoin="round" fill="none"/>
  </g>
</svg>
