<svg xmlns="http://www.w3.org/2000/svg" viewBox="0 0 24 24" fill="none" class="icon">
  <defs>
    <linearGradient id="gemGrad" x1="0%" y1="0%" x2="100%" y2="100%">
      <stop offset="0%" class="gradient-start" style="stop-color:var(--icon-gradient-start, #2196f3);stop-opacity:1" />
      <stop offset="100%" class="gradient-end" style="stop-color:var(--icon-gradient-end, #00b8cc);stop-opacity:1" />
    </linearGradient>
  </defs>
  <g class="icon-gradient">
    <path d="M6 3h12l4 6-10 13L2 9z" fill="url(#gemGrad)" opacity="0.2"/>
    <path d="M6 3h12l4 6-10 13L2 9z" stroke="url(#gemGrad)" stroke-width="2" stroke-linejoin="round" fill="none"/>
    <path d="M11 3l1 10L2 9l4-6" stroke="url(#gemGrad)" stroke-width="2" stroke-linejoin="round" fill="none"/>
    <path d="M13 3l-1 10 10-4-4-6" stroke="url(#gemGrad)" stroke-width="2" stroke-linejoin="round" fill="none"/>
  </g>
  <g class="icon-mono" style="display:none;">
    <path d="M6 3h12l4 6-10 13L2 9z" fill="currentColor" opacity="0.2"/>
    <path d="M6 3h12l4 6-10 13L2 9z" stroke="currentColor" stroke-width="2" stroke-linejoin="round" fill="none"/>
    <path d="M11 3l1 10L2 9l4-6" stroke="currentColor" stroke-width="2" stroke-linejoin="round" fill="none"/>
    <path d="M13 3l-1 10 10-4-4-6" stroke="currentColor" stroke-width="2" stroke-linejoin="round" fill="none"/>
  </g>
</svg>
