<svg xmlns="http://www.w3.org/2000/svg" viewBox="0 0 24 24" fill="none" class="icon">
  <defs>
    <linearGradient id="globeGrad" x1="0%" y1="0%" x2="100%" y2="100%">
      <stop offset="0%" class="gradient-start" style="stop-color:var(--icon-gradient-start, #2196f3);stop-opacity:1" />
      <stop offset="100%" class="gradient-end" style="stop-color:var(--icon-gradient-end, #00b8cc);stop-opacity:1" />
    </linearGradient>
  </defs>
  <g class="icon-gradient">
    <circle cx="12" cy="12" r="10" fill="url(#globeGrad)" opacity="0.15"/>
    <circle cx="12" cy="12" r="10" stroke="url(#globeGrad)" stroke-width="2" fill="none"/>
    <path d="M2 12h20" stroke="url(#globeGrad)" stroke-width="2"/>
    <path d="M12 2a15.3 15.3 0 014 10 15.3 15.3 0 01-4 10 15.3 15.3 0 01-4-10 15.3 15.3 0 014-10z" stroke="url(#globeGrad)" stroke-width="2" fill="none"/>
  </g>
  <g class="icon-mono" style="display:none;">
    <circle cx="12" cy="12" r="10" fill="currentColor" opacity="0.15"/>
    <circle cx="12" cy="12" r="10" stroke="currentColor" stroke-width="2" fill="none"/>
    <path d="M2 12h20" stroke="currentColor" stroke-width="2"/>
    <path d="M12 2a15.3 15.3 0 014 10 15.3 15.3 0 01-4 10 15.3 15.3 0 01-4-10 15.3 15.3 0 014-10z" stroke="currentColor" stroke-width="2" fill="none"/>
  </g>
</svg>
