<svg xmlns="http://www.w3.org/2000/svg" viewBox="0 0 24 24" fill="none" class="icon">
  <defs>
    <linearGradient id="hammerGrad" x1="0%" y1="0%" x2="100%" y2="100%">
      <stop offset="0%" class="gradient-start" style="stop-color:var(--icon-gradient-start, #2196f3);stop-opacity:1" />
      <stop offset="100%" class="gradient-end" style="stop-color:var(--icon-gradient-end, #00b8cc);stop-opacity:1" />
    </linearGradient>
  </defs>
  <g class="icon-gradient">
    <path d="M15 12l-8.5 8.5c-.83.83-2.17.83-3 0 0 0 0 0 0 0a2.12 2.12 0 010-3L12 9" fill="url(#hammerGrad)" opacity="0.2"/>
    <path d="M15 12l-8.5 8.5c-.83.83-2.17.83-3 0 0 0 0 0 0 0a2.12 2.12 0 010-3L12 9" stroke="url(#hammerGrad)" stroke-width="2" stroke-linecap="round" stroke-linejoin="round" fill="none"/>
    <path d="M17.64 15L22 10.64" stroke="url(#hammerGrad)" stroke-width="2" stroke-linecap="round" stroke-linejoin="round"/>
    <path d="M20.91 11.7l-1.25-1.25c-.6-.6-.93-1.4-.93-2.25v-.86L16.01 4.6a5.56 5.56 0 00-3.94-1.64H9l.92.82a6.18 6.18 0 011.8 3.93l.09 1.22L20.91 11.7z" fill="url(#hammerGrad)" opacity="0.3"/>
    <path d="M20.91 11.7l-1.25-1.25c-.6-.6-.93-1.4-.93-2.25v-.86L16.01 4.6a5.56 5.56 0 00-3.94-1.64H9l.92.82a6.18 6.18 0 011.8 3.93l.09 1.22L20.91 11.7z" stroke="url(#hammerGrad)" stroke-width="2" stroke-linecap="round" stroke-linejoin="round" fill="none"/>
  </g>
  <g class="icon-mono" style="display:none;">
    <path d="M15 12l-8.5 8.5c-.83.83-2.17.83-3 0 0 0 0 0 0 0a2.12 2.12 0 010-3L12 9" fill="currentColor" opacity="0.2"/>
    <path d="M15 12l-8.5 8.5c-.83.83-2.17.83-3 0 0 0 0 0 0 0a2.12 2.12 0 010-3L12 9" stroke="currentColor" stroke-width="2" stroke-linecap="round" stroke-linejoin="round" fill="none"/>
    <path d="M17.64 15L22 10.64" stroke="currentColor" stroke-width="2" stroke-linecap="round" stroke-linejoin="round"/>
    <path d="M20.91 11.7l-1.25-1.25c-.6-.6-.93-1.4-.93-2.25v-.86L16.01 4.6a5.56 5.56 0 00-3.94-1.64H9l.92.82a6.18 6.18 0 011.8 3.93l.09 1.22L20.91 11.7z" fill="currentColor" opacity="0.3"/>
    <path d="M20.91 11.7l-1.25-1.25c-.6-.6-.93-1.4-.93-2.25v-.86L16.01 4.6a5.56 5.56 0 00-3.94-1.64H9l.92.82a6.18 6.18 0 011.8 3.93l.09 1.22L20.91 11.7z" stroke="currentColor" stroke-width="2" stroke-linecap="round" stroke-linejoin="round" fill="none"/>
  </g>
</svg>
