<svg xmlns="http://www.w3.org/2000/svg" viewBox="0 0 24 24" fill="none" class="icon">
  <defs>
    <linearGradient id="layersGrad" x1="0%" y1="0%" x2="100%" y2="100%">
      <stop offset="0%" class="gradient-start" style="stop-color:var(--icon-gradient-start, #2196f3);stop-opacity:1" />
      <stop offset="100%" class="gradient-end" style="stop-color:var(--icon-gradient-end, #00b8cc);stop-opacity:1" />
    </linearGradient>
  </defs>
  <g class="icon-gradient">
    <path d="M12 2L2 7l10 5 10-5-10-5z" fill="url(#layersGrad)" opacity="0.2"/>
    <path d="M12 2L2 7l10 5 10-5-10-5z" stroke="url(#layersGrad)" stroke-width="2" stroke-linecap="round" stroke-linejoin="round" fill="none"/>
    <path d="M2 17l10 5 10-5" stroke="url(#layersGrad)" stroke-width="2" stroke-linecap="round" stroke-linejoin="round"/>
    <path d="M2 12l10 5 10-5" stroke="url(#layersGrad)" stroke-width="2" stroke-linecap="round" stroke-linejoin="round"/>
  </g>
  <g class="icon-mono" style="display:none;">
    <path d="M12 2L2 7l10 5 10-5-10-5z" fill="currentColor" opacity="0.2"/>
    <path d="M12 2L2 7l10 5 10-5-10-5z" stroke="currentColor" stroke-width="2" stroke-linecap="round" stroke-linejoin="round" fill="none"/>
    <path d="M2 17l10 5 10-5" stroke="currentColor" stroke-width="2" stroke-linecap="round" stroke-linejoin="round"/>
    <path d="M2 12l10 5 10-5" stroke="currentColor" stroke-width="2" stroke-linecap="round" stroke-linejoin="round"/>
  </g>
</svg>
