<svg xmlns="http://www.w3.org/2000/svg" viewBox="0 0 24 24" fill="none" class="icon">
  <defs>
    <linearGradient id="linkedinGrad" x1="0%" y1="0%" x2="100%" y2="100%">
      <stop offset="0%" class="gradient-start" style="stop-color:var(--icon-gradient-start, #2196f3);stop-opacity:1" />
      <stop offset="100%" class="gradient-end" style="stop-color:var(--icon-gradient-end, #00b8cc);stop-opacity:1" />
    </linearGradient>
  </defs>
  <g class="icon-gradient">
    <rect x="2" y="2" width="20" height="20" rx="3" fill="url(#linkedinGrad)" opacity="0.2"/>
    <rect x="2" y="2" width="20" height="20" rx="3" stroke="url(#linkedinGrad)" stroke-width="1.5" fill="none"/>
    <path d="M7.5 9.5v8M7.5 6.5a1 1 0 100 2 1 1 0 000-2zM11.5 17.5v-4.5a2 2 0 014 0v4.5M11.5 10.5v7" stroke="url(#linkedinGrad)" stroke-width="2" stroke-linecap="round" stroke-linejoin="round"/>
  </g>
  
  <!-- Monochrome fallback -->
  <g class="icon-mono" style="display:none;">
    <rect x="2" y="2" width="20" height="20" rx="3" fill="currentColor" opacity="0.15"/>
    <rect x="2" y="2" width="20" height="20" rx="3" stroke="currentColor" stroke-width="1.5" fill="none"/>
    <path d="M7.5 9.5v8M7.5 6.5a1 1 0 100 2 1 1 0 000-2zM11.5 17.5v-4.5a2 2 0 014 0v4.5M11.5 10.5v7" stroke="currentColor" stroke-width="2" stroke-linecap="round" stroke-linejoin="round"/>
  </g>
</svg>
