<svg xmlns="http://www.w3.org/2000/svg" viewBox="0 0 24 24" fill="none" class="icon">
  <defs>
    <linearGradient id="paletteGrad" x1="0%" y1="0%" x2="100%" y2="100%">
      <stop offset="0%" class="gradient-start" style="stop-color:var(--icon-gradient-start, #2196f3);stop-opacity:1" />
      <stop offset="100%" class="gradient-end" style="stop-color:var(--icon-gradient-end, #00b8cc);stop-opacity:1" />
    </linearGradient>
  </defs>
  <g class="icon-gradient">
    <path d="M12 2C6.5 2 2 6.5 2 12s4.5 10 10 10c.93 0 1.82-.13 2.68-.36.5-.13.86-.58.86-1.1 0-.28-.11-.53-.29-.71-.18-.18-.43-.29-.71-.29H13c-1.1 0-2-.9-2-2 0-.26.05-.5.14-.73.23-.53.71-.89 1.28-.97.14-.02.28-.03.43-.03h1.5c.52 0 .97-.38 1.04-.89.12-.87.18-1.74.18-2.62 0-1.66-.41-3.24-1.13-4.62-.23-.44-.46-.86-.72-1.26A10.024 10.024 0 0012 2z" fill="url(#paletteGrad)" opacity="0.2"/>
    <path d="M12 2C6.5 2 2 6.5 2 12s4.5 10 10 10c.93 0 1.82-.13 2.68-.36.5-.13.86-.58.86-1.1 0-.28-.11-.53-.29-.71-.18-.18-.43-.29-.71-.29H13c-1.1 0-2-.9-2-2 0-.26.05-.5.14-.73.23-.53.71-.89 1.28-.97.14-.02.28-.03.43-.03h1.5c.52 0 .97-.38 1.04-.89.12-.87.18-1.74.18-2.62 0-1.66-.41-3.24-1.13-4.62-.23-.44-.46-.86-.72-1.26A10.024 10.024 0 0012 2z" stroke="url(#paletteGrad)" stroke-width="2" fill="none"/>
    <circle cx="8.5" cy="8.5" r="1.5" fill="url(#paletteGrad)"/>
    <circle cx="12" cy="6" r="1.5" fill="url(#paletteGrad)"/>
    <circle cx="15.5" cy="8.5" r="1.5" fill="url(#paletteGrad)"/>
    <circle cx="6" cy="12" r="1.5" fill="url(#paletteGrad)"/>
  </g>
  <g class="icon-mono" style="display:none;">
    <path d="M12 2C6.5 2 2 6.5 2 12s4.5 10 10 10c.93 0 1.82-.13 2.68-.36.5-.13.86-.58.86-1.1 0-.28-.11-.53-.29-.71-.18-.18-.43-.29-.71-.29H13c-1.1 0-2-.9-2-2 0-.26.05-.5.14-.73.23-.53.71-.89 1.28-.97.14-.02.28-.03.43-.03h1.5c.52 0 .97-.38 1.04-.89.12-.87.18-1.74.18-2.62 0-1.66-.41-3.24-1.13-4.62-.23-.44-.46-.86-.72-1.26A10.024 10.024 0 0012 2z" fill="currentColor" opacity="0.2"/>
    <path d="M12 2C6.5 2 2 6.5 2 12s4.5 10 10 10c.93 0 1.82-.13 2.68-.36.5-.13.86-.58.86-1.1 0-.28-.11-.53-.29-.71-.18-.18-.43-.29-.71-.29H13c-1.1 0-2-.9-2-2 0-.26.05-.5.14-.73.23-.53.71-.89 1.28-.97.14-.02.28-.03.43-.03h1.5c.52 0 .97-.38 1.04-.89.12-.87.18-1.74.18-2.62 0-1.66-.41-3.24-1.13-4.62-.23-.44-.46-.86-.72-1.26A10.024 10.024 0 0012 2z" stroke="currentColor" stroke-width="2" fill="none"/>
    <circle cx="8.5" cy="8.5" r="1.5" fill="currentColor"/>
    <circle cx="12" cy="6" r="1.5" fill="currentColor"/>
    <circle cx="15.5" cy="8.5" r="1.5" fill="currentColor"/>
    <circle cx="6" cy="12" r="1.5" fill="currentColor"/>
  </g>
</svg>
