<svg xmlns="http://www.w3.org/2000/svg" viewBox="0 0 24 24" fill="none" class="icon">
  <defs>
    <linearGradient id="rocketGrad" x1="0%" y1="0%" x2="100%" y2="100%">
      <stop offset="0%" class="gradient-start" style="stop-color:var(--icon-gradient-start, #2196f3);stop-opacity:1" />
      <stop offset="100%" class="gradient-end" style="stop-color:var(--icon-gradient-end, #00b8cc);stop-opacity:1" />
    </linearGradient>
  </defs>
  <g class="icon-gradient">
    <path d="M4.5 16.5c-1.5 1.26-2 5-2 5s3.74-.5 5-2c.71-.84.7-2.13-.09-2.91a2.18 2.18 0 00-2.91-.09z" fill="url(#rocketGrad)" opacity="0.3"/>
    <path d="M12 15l-3-3a22 22 0 012-3.95A12.88 12.88 0 0122 2c0 2.72-.78 7.5-6 11.95A22.18 22.18 0 0112 15z" fill="url(#rocketGrad)" opacity="0.2"/>
    <path d="M12 15l-3-3a22 22 0 012-3.95A12.88 12.88 0 0122 2c0 2.72-.78 7.5-6 11.95A22.18 22.18 0 0112 15z" stroke="url(#rocketGrad)" stroke-width="2" stroke-linecap="round" stroke-linejoin="round" fill="none"/>
    <path d="M9 12H4s.55-3.03 2-4c1.62-1.08 5 0 5 0M12 15v5s3.03-.55 4-2c1.08-1.62 0-5 0-5" stroke="url(#rocketGrad)" stroke-width="2" stroke-linecap="round" stroke-linejoin="round"/>
  </g>
  <g class="icon-mono" style="display:none;">
    <path d="M4.5 16.5c-1.5 1.26-2 5-2 5s3.74-.5 5-2c.71-.84.7-2.13-.09-2.91a2.18 2.18 0 00-2.91-.09z" fill="currentColor" opacity="0.3"/>
    <path d="M12 15l-3-3a22 22 0 012-3.95A12.88 12.88 0 0122 2c0 2.72-.78 7.5-6 11.95A22.18 22.18 0 0112 15z" fill="currentColor" opacity="0.2"/>
    <path d="M12 15l-3-3a22 22 0 012-3.95A12.88 12.88 0 0122 2c0 2.72-.78 7.5-6 11.95A22.18 22.18 0 0112 15z" stroke="currentColor" stroke-width="2" stroke-linecap="round" stroke-linejoin="round" fill="none"/>
    <path d="M9 12H4s.55-3.03 2-4c1.62-1.08 5 0 5 0M12 15v5s3.03-.55 4-2c1.08-1.62 0-5 0-5" stroke="currentColor" stroke-width="2" stroke-linecap="round" stroke-linejoin="round"/>
  </g>
</svg>
