<svg xmlns="http://www.w3.org/2000/svg" viewBox="0 0 24 24" fill="none" class="icon">
  <defs>
    <linearGradient id="sparkleGrad" x1="0%" y1="0%" x2="100%" y2="100%">
      <stop offset="0%" class="gradient-start" style="stop-color:var(--icon-gradient-start, #2196f3);stop-opacity:1" />
      <stop offset="100%" class="gradient-end" style="stop-color:var(--icon-gradient-end, #00b8cc);stop-opacity:1" />
    </linearGradient>
  </defs>
  <g class="icon-gradient">
    <path d="M12 3l1.912 5.813a2 2 0 001.275 1.275L21 12l-5.813 1.912a2 2 0 00-1.275 1.275L12 21l-1.912-5.813a2 2 0 00-1.275-1.275L3 12l5.813-1.912a2 2 0 001.275-1.275L12 3z" fill="url(#sparkleGrad)" opacity="0.2"/>
    <path d="M12 3l1.912 5.813a2 2 0 001.275 1.275L21 12l-5.813 1.912a2 2 0 00-1.275 1.275L12 21l-1.912-5.813a2 2 0 00-1.275-1.275L3 12l5.813-1.912a2 2 0 001.275-1.275L12 3z" stroke="url(#sparkleGrad)" stroke-width="2" stroke-linecap="round" stroke-linejoin="round" fill="none"/>
  </g>
  <g class="icon-mono" style="display:none;">
    <path d="M12 3l1.912 5.813a2 2 0 001.275 1.275L21 12l-5.813 1.912a2 2 0 00-1.275 1.275L12 21l-1.912-5.813a2 2 0 00-1.275-1.275L3 12l5.813-1.912a2 2 0 001.275-1.275L12 3z" fill="currentColor" opacity="0.2"/>
    <path d="M12 3l1.912 5.813a2 2 0 001.275 1.275L21 12l-5.813 1.912a2 2 0 00-1.275 1.275L12 21l-1.912-5.813a2 2 0 00-1.275-1.275L3 12l5.813-1.912a2 2 0 001.275-1.275L12 3z" stroke="currentColor" stroke-width="2" stroke-linecap="round" stroke-linejoin="round" fill="none"/>
  </g>
</svg>
